<svg viewBox="0 0 100 100" xmlns="http://www.w3.org/2000/svg"><defs><linearGradient id="gold-grad" x1="0%" y1="0%" x2="100%" y2="100%"><stop offset="0%" stop-color="#dbb56b" stop-opacity="0.3" /><stop offset="100%" stop-color="#f4d39a" stop-opacity="0.8" /></linearGradient></defs><path d="M 0,100 L 0,30 C 10,35 20,30 30,15 C 40,0 45,0 50,0 C 55,0 60,0 70,15 C 80,30 90,35 100,30 L 100,100 Z" fill="url(#gold-grad)" /><path d="M 10,100 C 15,80 5,60 20,40 C 35,20 40,10 50,10" fill="none" stroke="#dbb56b" stroke-width="0.5" stroke-opacity="0.5" /><path d="M 90,100 C 85,80 95,60 80,40 C 65,20 60,10 50,10" fill="none" stroke="#dbb56b" stroke-width="0.5" stroke-opacity="0.5" /><circle cx="20" cy="40" r="2" fill="#4d6141" opacity="0.6"/><circle cx="80" cy="40" r="2" fill="#4d6141" opacity="0.6"/><polygon points="50,20 55,30 45,30" fill="rgba(204, 132, 0, 0.4)"/><polygon points="50,40 55,50 45,50" fill="rgba(204, 132, 0, 0.4)"/></svg>
