<svg xmlns="http://www.w3.org/2000/svg" viewBox="0 0 100 100">
    <g fill="none" stroke="#dbb56b" stroke-width="1.5">
        <!-- Main geometric star/flower -->
        <path d="M50 2 C60 25 75 40 98 50 C75 60 60 75 50 98 C40 75 25 60 2 50 C25 40 40 25 50 2 Z"/>
        
        <!-- Inner layer -->
        <path d="M50 18 C58 32 68 42 82 50 C68 58 58 68 50 82 C42 68 32 58 18 50 C32 42 42 32 50 18 Z" opacity="0.7"/>
        
        <!-- Central rings -->
        <circle cx="50" cy="50" r="12" stroke-dasharray="3, 3"/>
        <circle cx="50" cy="50" r="6" fill="#dbb56b" fill-opacity="0.2"/>
        <circle cx="50" cy="50" r="2" fill="#dbb56b"/>
        
        <!-- Decorative corner arabesque flourishes -->
        <path d="M50 15 Q65 15 70 30 Q50 25 50 15 Z" opacity="0.5"/>
        <path d="M50 15 Q35 15 30 30 Q50 25 50 15 Z" opacity="0.5"/>
        
        <path d="M50 85 Q65 85 70 70 Q50 75 50 85 Z" opacity="0.5"/>
        <path d="M50 85 Q35 85 30 70 Q50 75 50 85 Z" opacity="0.5"/>
        
        <path d="M85 50 Q85 35 70 30 Q75 50 85 50 Z" opacity="0.5"/>
        <path d="M85 50 Q85 65 70 70 Q75 50 85 50 Z" opacity="0.5"/>
        
        <path d="M15 50 Q15 35 30 30 Q25 50 15 50 Z" opacity="0.5"/>
        <path d="M15 50 Q15 65 30 70 Q25 50 15 50 Z" opacity="0.5"/>
    </g>
</svg>